Genre:Comedy
Language:English
 
http://www.imdb.com/title/tt1366344/

Source:720p TS NEW SOURCE XviD - TH3GRiNCH Thanks!

Format : AVI
Format/Info : Audio Video Interleave
File size : 804 MiB
Duration : 1h 17mn
Overall bit rate : 1 448 Kbps

Video
ID : 0
Format : MPEG-4 Visual
Format profile : Advanced Simple@L5
Format settings, BVOP : Yes
Format settings, QPel : No
Format settings, GMC : No warppoints
Format settings, Matrix : Default (H.263)
Codec ID : XVID
Codec ID/Hint : XviD
Duration : 1h 17mn
Bit rate : 1 246 Kbps
Width : 640 pixels
Height : 312 pixels
Display aspect ratio : 2.051
Frame rate : 24.000 fps
Color space : YUV
Chroma subsampling : 4:2:0
Bit depth : 8 bits
Scan type : Progressive
Bits/(Pixel*Frame) : 0.260
Stream size : 692 MiB (86%)
Writing library : XviD 1.2.1 (UTC 2008-12-04)

Audio
ID : 1
Format : AC-3
Format/Info : Audio Coding 3
Mode extension : CM (complete main)
Codec ID : 2000
Duration : 1h 17mn
Bit rate mode : Constant
Bit rate : 192 Kbps
Channel(s) : 2 channels
Channel positions : Front: L R
Sampling rate : 48.0 KHz
Bit depth : 16 bits
Stream size : 107 MiB (13%)
Alignment : Aligned on interleaves
Interleave, duration : 42 ms (1.00 video frame)
Interleave, preload duration : 512 ms


Plot:
A comedy about a college student on suspension who is coaxed into babysitting the kids next door, though he is fully unprepared for the wild night ahead of him
 
http://img840.imageshack.us/img840/4296/vlcsnap00001zf.png 
http://img710.imageshack.us/img710/3751/vlcsnap00002fw.png 
http://img220.imageshack.us/img220/5532/vlcsnap00003c.png 
http://img513.imageshack.us/img513/5039/vlcsnap00004bh.png 
http://img812.imageshack.us/img812/1989/vlcsnap00005ta.png